# xmcd CD database file
#
# Track frame offsets:
#	150
#	19360
#	37795
#	55453
#	74245
#	89303
#	101868
#	120290
#	140530
#	156505
#	172130
#	187775
#
# Disc length: 2803 seconds
#
# Revision: 2
# Processed by: cddbd v1.5.1PL0 Copyright (c) Steve Scherf et al.
# Submitted via: CDex 1.50
#
DISCID=ab0af10c
DTITLE=Hana Hegerova - Potmesily host
DYEAR=1987
DGENRE=Chanson
TTITLE0=Stin stiha stin
TTITLE1=Jinde
TTITLE2=Levandulova
TTITLE3=Gabriel
TTITLE4=Vsechno je nejlepsi
TTITLE5=Vune
TTITLE6=Denim blue
TTITLE7=Zit a nechat zit
TTITLE8=Vana plna fialek
TTITLE9=Kolotoc
TTITLE10=Tata mel rad Maji Westovou
TTITLE11=Potmesily host
EXTD=YEAR: 1987
EXTT0=
EXTT1=
EXTT2=
EXTT3=
EXTT4=
EXTT5=
EXTT6=
EXTT7=
EXTT8=
EXTT9=
EXTT10=
EXTT11=
PLAYORDER=
